<svg width="58" height="58" viewBox="0 0 58 58" fill="none" xmlns="http://www.w3.org/2000/svg">
<path d="M15.4063 42.5937L7.5521 34.7395C6.62169 33.7819 6.04169 32.4346 6.04169 31.1145C6.04169 30.5043 6.38606 29.5497 6.64585 28.9999L13.8959 13.8958L15.4063 42.5937Z" fill="#01579B"/>
<path d="M42.2917 15.4063L34.4375 7.55216C33.7518 6.86341 32.3229 6.04175 31.1146 6.04175C30.0754 6.04175 29.0574 6.25019 28.3958 6.64591L13.8958 13.8959L42.2917 15.4063Z" fill="#40C4FF"/>
<path d="M24.7708 51.9583H43.8021V43.802L29.6041 39.2708L16.6146 43.802L24.7708 51.9583Z" fill="#40C4FF"/>
<path d="M13.8958 38.3645C13.8958 40.7872 14.2009 41.3823 15.4062 42.5937L16.6146 43.802H43.8021L30.5104 28.6978L13.8958 13.8958V38.3645Z" fill="#29B6F6"/>
<path d="M38.0625 13.8958H13.8958L43.8021 43.802H51.9583V25.0728L42.2916 15.4062C40.9353 14.0438 39.727 13.8958 38.0625 13.8958Z" fill="#01579B"/>
<path opacity="0.2" d="M15.7083 42.8958C14.5 41.6814 14.1979 40.4881 14.1979 38.3645V14.1978L13.8958 13.8958V38.3645C13.8958 40.4881 13.8958 41.0772 15.7083 42.8958L16.6146 43.802L15.7083 42.8958Z" fill="white"/>
<path opacity="0.2" d="M51.6562 24.7708V43.4999H43.5L43.8021 43.802H51.9583V25.0728L51.6562 24.7708Z" fill="#263238"/>
<path opacity="0.2" d="M42.2917 15.4062C40.7933 13.9078 39.5669 13.8958 37.7604 13.8958H13.8958L14.1979 14.1978H37.7604C38.6636 14.1978 40.9383 14.0468 42.2917 15.4062Z" fill="white"/>
<path opacity="0.2" d="M51.6563 24.7709L42.2917 15.4063L34.4375 7.55216C33.7518 6.86341 32.3229 6.04175 31.1146 6.04175C30.0754 6.04175 29.0574 6.25019 28.3959 6.64591L13.8959 13.8959L6.64585 29.0001C6.38606 29.5499 6.04169 30.5045 6.04169 31.1147C6.04169 32.4348 6.62169 33.7821 7.5521 34.7397L14.79 41.9262C14.9622 42.1377 15.1676 42.3552 15.4063 42.5938L15.7084 42.8959L16.6146 43.8022L24.4688 51.6563L24.7709 51.9584H43.5H43.8021V43.8022H51.9584V43.781V25.073L51.6563 24.7709Z" fill="url(#paint0_radial_539:8204)"/>
<defs>
<radialGradient id="paint0_radial_539:8204" cx="0" cy="0" r="1" gradientUnits="userSpaceOnUse" gradientTransform="translate(29 29.0001) scale(22.9583)">
<stop stop-color="white" stop-opacity="0.1"/>
<stop offset="1" stop-color="white" stop-opacity="0"/>
</radialGradient>
</defs>
</svg>
