<svg width="35" height="50" viewBox="0 0 35 50" fill="none" xmlns="http://www.w3.org/2000/svg">
<path d="M22.9809 18.0597L18.1328 22.7155L13.6325 13.3491L15.9573 7.96362C16.5449 6.88935 17.5059 6.87516 18.0935 7.96362L22.9809 18.0597Z" fill="#FFA000"/>
<path d="M18.1348 22.7137L0 40.1108L13.6345 13.3494L18.1348 22.7137Z" fill="#F57F17"/>
<path d="M28.2967 10.9393C29.1654 10.086 30.0595 10.3738 30.2855 11.5859L35 39.8756L19.363 49.5582C18.8147 49.8744 17.3605 49.998 17.3605 49.998C17.3605 49.998 16.0379 49.8318 15.5309 49.544L0 40.1107L28.2967 10.9393Z" fill="#FFCA28"/>
<path d="M13.6345 13.3507L0 40.1121L6.07636 0.996637C6.30432 -0.21546 6.97052 -0.339102 7.57187 0.735165L13.6345 13.3507Z" fill="#FFA000"/>
</svg>
